<?xml version="1.0" standalone="no"?>
<!DOCTYPE svg PUBLIC "-//W3C//DTD SVG 20010904//EN"
 "http://www.w3.org/TR/2001/REC-SVG-20010904/DTD/svg10.dtd">
<svg version="1.0" xmlns="http://www.w3.org/2000/svg"
 width="1170.000000pt" height="1170.000000pt" viewBox="0 0 1170.000000 1170.000000"
 preserveAspectRatio="xMidYMid meet">
<metadata>
Created by potrace 1.14, written by Peter Selinger 2001-2017
</metadata>
<g transform="translate(0.000000,1170.000000) scale(0.100000,-0.100000)"
fill="#000000" stroke="none">
<path d="M0 5850 l0 -5850 1933 0 1933 0 250 273 c138 149 385 418 549 597
163 179 343 375 399 435 56 61 257 279 446 485 360 393 462 504 675 735 72 77
299 325 505 550 206 226 408 446 450 490 41 44 170 184 285 310 116 126 289
315 385 420 96 105 299 325 450 490 151 165 295 323 321 350 25 28 106 115
179 195 74 80 179 195 235 255 56 61 182 198 280 305 98 107 221 242 274 299
53 57 97 107 99 112 3 6 -701 781 -943 1039 -29 30 -132 143 -230 250 -173
189 -237 258 -511 555 -71 78 -172 188 -224 245 -52 57 -100 108 -105 114 -6
6 -109 119 -230 251 -121 132 -348 380 -505 550 -157 171 -337 366 -400 435
-104 115 -279 305 -404 440 -29 30 -168 183 -311 339 -212 232 -426 465 -667
726 -15 17 -114 125 -220 242 l-193 211 -2352 1 -2353 1 0 -5850z m6913 1675
c366 -55 645 -275 737 -582 21 -71 41 -217 32 -240 -3 -10 -55 -13 -211 -13
l-208 0 -12 68 c-33 180 -149 312 -329 374 -59 20 -85 23 -222 22 -141 0 -162
-3 -236 -27 -366 -122 -602 -552 -581 -1060 6 -153 21 -220 79 -337 72 -148
196 -247 355 -285 111 -27 302 -17 403 20 104 38 189 95 263 175 89 97 139
196 171 343 l6 27 -284 0 c-157 0 -287 3 -289 8 -3 4 5 54 18 112 13 58 28
131 35 163 l11 57 500 0 c302 0 499 -4 499 -9 0 -22 -73 -364 -95 -447 -148
-548 -582 -865 -1150 -841 -141 6 -234 23 -346 62 -285 99 -500 343 -586 662
-25 92 -27 113 -27 323 -1 199 2 237 22 330 51 230 141 446 248 597 69 98 207
236 295 299 249 175 578 248 902 199z m-4379 -52 c-3 -16 -20 -98 -38 -183
l-32 -155 -547 -3 -547 -2 -5 -23 c-6 -27 -133 -611 -141 -649 l-6 -28 496 0
c429 0 496 -2 496 -15 0 -12 -46 -238 -65 -322 l-5 -23 -500 0 c-275 0 -500
-3 -500 -7 0 -4 -45 -218 -100 -475 -55 -257 -100 -474 -100 -483 0 -13 -30
-15 -226 -15 l-226 0 6 28 c5 25 65 305 307 1447 54 259 106 499 114 535 8 36
28 130 45 210 17 80 33 155 35 168 l5 22 770 0 770 0 -6 -27z m830 -70 c9 -54
62 -339 116 -633 54 -294 122 -663 151 -820 28 -157 53 -287 55 -289 8 -8 22
13 167 254 79 132 269 447 422 700 153 253 335 555 404 672 l126 212 273 0
c256 1 273 0 268 -16 -3 -10 -46 -211 -96 -448 -50 -236 -97 -459 -105 -495
-8 -36 -74 -342 -145 -680 -72 -338 -138 -650 -147 -692 l-16 -78 -199 0
c-185 0 -199 1 -194 18 5 17 66 299 267 1235 55 258 99 475 97 483 -2 7 -22
-17 -44 -54 -367 -599 -909 -1487 -973 -1594 l-46 -78 -155 3 -154 2 -158 860
c-86 473 -158 865 -158 870 -4 29 -26 -64 -94 -385 -88 -418 -261 -1232 -278
-1307 l-11 -53 -197 0 -196 0 51 243 c28 133 143 675 256 1204 l204 963 246 0
246 0 17 -97z"/>
</g>
</svg>
